<mxfile host="app.diagrams.net" modified="2023-10-17T22:13:39.569Z" agent="Mozilla/5.0 (Windows NT 10.0; Win64; x64) AppleWebKit/537.36 (KHTML, like Gecko) Chrome/118.0.0.0 Safari/537.36" etag="G2Rp_v_hqtrt44zgCgLj" version="22.0.4" type="google">
  <diagram name="PÃ¡gina-1" id="M2RsOQitAMqiXVtZ4GRd">
    <mxGraphModel grid="1" page="1" gridSize="10" guides="1" tooltips="1" connect="1" arrows="1" fold="1" pageScale="1" pageWidth="827" pageHeight="1169" math="0" shadow="0">
      <root>
        <mxCell id="0" />
        <mxCell id="1" parent="0" />
        <mxCell id="FpeAan1M-ZCTcoJyhv8M-5" value="PaqueteDecorado" style="swimlane;fontStyle=1;align=center;verticalAlign=top;childLayout=stackLayout;horizontal=1;startSize=26;horizontalStack=0;resizeParent=1;resizeParentMax=0;resizeLast=0;collapsible=1;marginBottom=0;whiteSpace=wrap;html=1;" vertex="1" parent="1">
          <mxGeometry x="390" y="320" width="310" height="190" as="geometry" />
        </mxCell>
        <mxCell id="FpeAan1M-ZCTcoJyhv8M-6" value="# precio: double&lt;br&gt;# duracion: int&lt;br&gt;# descripcion: String&lt;br&gt;# paqueteBase: PaqueteTuristico" style="text;strokeColor=none;fillColor=none;align=left;verticalAlign=top;spacingLeft=4;spacingRight=4;overflow=hidden;rotatable=0;points=[[0,0.5],[1,0.5]];portConstraint=eastwest;whiteSpace=wrap;html=1;" vertex="1" parent="FpeAan1M-ZCTcoJyhv8M-5">
          <mxGeometry y="26" width="310" height="74" as="geometry" />
        </mxCell>
        <mxCell id="FpeAan1M-ZCTcoJyhv8M-7" value="" style="line;strokeWidth=1;fillColor=none;align=left;verticalAlign=middle;spacingTop=-1;spacingLeft=3;spacingRight=3;rotatable=0;labelPosition=right;points=[];portConstraint=eastwest;strokeColor=inherit;" vertex="1" parent="FpeAan1M-ZCTcoJyhv8M-5">
          <mxGeometry y="100" width="310" height="8" as="geometry" />
        </mxCell>
        <mxCell id="FpeAan1M-ZCTcoJyhv8M-8" value="+ PaqueteDecorado(paqueteBase: PaqueteTuristico)&lt;br&gt;+ getPrecio(): double&lt;br&gt;+ getDuracion(): int&lt;br&gt;+ getDescripcion(): String" style="text;strokeColor=none;fillColor=none;align=left;verticalAlign=top;spacingLeft=4;spacingRight=4;overflow=hidden;rotatable=0;points=[[0,0.5],[1,0.5]];portConstraint=eastwest;whiteSpace=wrap;html=1;" vertex="1" parent="FpeAan1M-ZCTcoJyhv8M-5">
          <mxGeometry y="108" width="310" height="82" as="geometry" />
        </mxCell>
        <mxCell id="8U7-mPMAWJ6uLOay3m5V-6" value="&lt;i&gt;&amp;lt;&amp;lt;Interface&amp;gt;&amp;gt;&lt;br&gt;PaqueteTuristico&lt;br&gt;&lt;/i&gt;" style="swimlane;fontStyle=1;align=center;verticalAlign=top;childLayout=stackLayout;horizontal=1;startSize=40;horizontalStack=0;resizeParent=1;resizeParentMax=0;resizeLast=0;collapsible=1;marginBottom=0;whiteSpace=wrap;html=1;" vertex="1" parent="1">
          <mxGeometry x="150" y="140" width="220" height="116" as="geometry" />
        </mxCell>
        <mxCell id="8U7-mPMAWJ6uLOay3m5V-8" value="" style="line;strokeWidth=1;fillColor=none;align=left;verticalAlign=middle;spacingTop=-1;spacingLeft=3;spacingRight=3;rotatable=0;labelPosition=right;points=[];portConstraint=eastwest;strokeColor=inherit;" vertex="1" parent="8U7-mPMAWJ6uLOay3m5V-6">
          <mxGeometry y="40" width="220" height="20" as="geometry" />
        </mxCell>
        <mxCell id="8U7-mPMAWJ6uLOay3m5V-9" value="+ getPrecio(): double&lt;br&gt;+ getDuracion(): int&lt;br&gt;+ string getDescripcion(): String" style="text;strokeColor=none;fillColor=none;align=left;verticalAlign=top;spacingLeft=4;spacingRight=4;overflow=hidden;rotatable=0;points=[[0,0.5],[1,0.5]];portConstraint=eastwest;whiteSpace=wrap;html=1;" vertex="1" parent="8U7-mPMAWJ6uLOay3m5V-6">
          <mxGeometry y="60" width="220" height="56" as="geometry" />
        </mxCell>
        <mxCell id="8U7-mPMAWJ6uLOay3m5V-10" value="PaqueteBase" style="swimlane;fontStyle=1;align=center;verticalAlign=top;childLayout=stackLayout;horizontal=1;startSize=26;horizontalStack=0;resizeParent=1;resizeParentMax=0;resizeLast=0;collapsible=1;marginBottom=0;whiteSpace=wrap;html=1;" vertex="1" parent="1">
          <mxGeometry x="188" y="320" width="160" height="160" as="geometry" />
        </mxCell>
        <mxCell id="8U7-mPMAWJ6uLOay3m5V-11" value="- precio: double&lt;br&gt;- duracion: int&lt;br&gt;- descripcion: String" style="text;strokeColor=none;fillColor=none;align=left;verticalAlign=top;spacingLeft=4;spacingRight=4;overflow=hidden;rotatable=0;points=[[0,0.5],[1,0.5]];portConstraint=eastwest;whiteSpace=wrap;html=1;" vertex="1" parent="8U7-mPMAWJ6uLOay3m5V-10">
          <mxGeometry y="26" width="160" height="54" as="geometry" />
        </mxCell>
        <mxCell id="8U7-mPMAWJ6uLOay3m5V-12" value="" style="line;strokeWidth=1;fillColor=none;align=left;verticalAlign=middle;spacingTop=-1;spacingLeft=3;spacingRight=3;rotatable=0;labelPosition=right;points=[];portConstraint=eastwest;strokeColor=inherit;" vertex="1" parent="8U7-mPMAWJ6uLOay3m5V-10">
          <mxGeometry y="80" width="160" height="8" as="geometry" />
        </mxCell>
        <mxCell id="8U7-mPMAWJ6uLOay3m5V-13" value="+ PaqueteBase()&lt;br&gt;+ getPrecio(): double&lt;br&gt;+ getDuracion(): int&lt;br&gt;+ getDescripcion(): String" style="text;strokeColor=none;fillColor=none;align=left;verticalAlign=top;spacingLeft=4;spacingRight=4;overflow=hidden;rotatable=0;points=[[0,0.5],[1,0.5]];portConstraint=eastwest;whiteSpace=wrap;html=1;" vertex="1" parent="8U7-mPMAWJ6uLOay3m5V-10">
          <mxGeometry y="88" width="160" height="72" as="geometry" />
        </mxCell>
        <mxCell id="8U7-mPMAWJ6uLOay3m5V-15" value="" style="endArrow=block;dashed=1;endFill=0;endSize=12;html=1;rounded=0;entryX=0.535;entryY=0.926;entryDx=0;entryDy=0;entryPerimeter=0;exitX=0.5;exitY=0;exitDx=0;exitDy=0;" edge="1" parent="1" source="8U7-mPMAWJ6uLOay3m5V-10" target="8U7-mPMAWJ6uLOay3m5V-9">
          <mxGeometry width="160" relative="1" as="geometry">
            <mxPoint x="264" y="490" as="sourcePoint" />
            <mxPoint x="424" y="490" as="targetPoint" />
          </mxGeometry>
        </mxCell>
        <mxCell id="FpeAan1M-ZCTcoJyhv8M-10" value="" style="endArrow=none;endFill=0;html=1;edgeStyle=orthogonalEdgeStyle;align=left;verticalAlign=top;rounded=0;entryX=0.5;entryY=0;entryDx=0;entryDy=0;dashed=1;" edge="1" parent="1" target="FpeAan1M-ZCTcoJyhv8M-5">
          <mxGeometry x="-1" relative="1" as="geometry">
            <mxPoint x="269" y="290" as="sourcePoint" />
            <mxPoint x="429" y="290" as="targetPoint" />
          </mxGeometry>
        </mxCell>
        <mxCell id="wZF9iDMgWRP9hFnF8hXq-14" value="PaqueteNature" style="swimlane;fontStyle=1;align=center;verticalAlign=top;childLayout=stackLayout;horizontal=1;startSize=26;horizontalStack=0;resizeParent=1;resizeParentMax=0;resizeLast=0;collapsible=1;marginBottom=0;whiteSpace=wrap;html=1;" vertex="1" parent="1">
          <mxGeometry x="407" y="680" width="290" height="130" as="geometry" />
        </mxCell>
        <mxCell id="wZF9iDMgWRP9hFnF8hXq-16" value="" style="line;strokeWidth=1;fillColor=none;align=left;verticalAlign=middle;spacingTop=-1;spacingLeft=3;spacingRight=3;rotatable=0;labelPosition=right;points=[];portConstraint=eastwest;strokeColor=inherit;" vertex="1" parent="wZF9iDMgWRP9hFnF8hXq-14">
          <mxGeometry y="26" width="290" height="14" as="geometry" />
        </mxCell>
        <mxCell id="wZF9iDMgWRP9hFnF8hXq-17" value="+ PaqueteNature:(paqueteBase: PaqueteTuristico)&lt;br&gt;+ getPrecio(): double&lt;br style=&quot;border-color: var(--border-color);&quot;&gt;+ getDuracion(): int&lt;br style=&quot;border-color: var(--border-color);&quot;&gt;+ getDescripcion(): String" style="text;strokeColor=none;fillColor=none;align=left;verticalAlign=top;spacingLeft=4;spacingRight=4;overflow=hidden;rotatable=0;points=[[0,0.5],[1,0.5]];portConstraint=eastwest;whiteSpace=wrap;html=1;" vertex="1" parent="wZF9iDMgWRP9hFnF8hXq-14">
          <mxGeometry y="40" width="290" height="90" as="geometry" />
        </mxCell>
        <mxCell id="wZF9iDMgWRP9hFnF8hXq-18" value="PaquetePearlHarbor" style="swimlane;fontStyle=1;align=center;verticalAlign=top;childLayout=stackLayout;horizontal=1;startSize=26;horizontalStack=0;resizeParent=1;resizeParentMax=0;resizeLast=0;collapsible=1;marginBottom=0;whiteSpace=wrap;html=1;" vertex="1" parent="1">
          <mxGeometry x="740" y="680" width="270" height="130" as="geometry" />
        </mxCell>
        <mxCell id="wZF9iDMgWRP9hFnF8hXq-20" value="" style="line;strokeWidth=1;fillColor=none;align=left;verticalAlign=middle;spacingTop=-1;spacingLeft=3;spacingRight=3;rotatable=0;labelPosition=right;points=[];portConstraint=eastwest;strokeColor=inherit;" vertex="1" parent="wZF9iDMgWRP9hFnF8hXq-18">
          <mxGeometry y="26" width="270" height="14" as="geometry" />
        </mxCell>
        <mxCell id="wZF9iDMgWRP9hFnF8hXq-21" value="+ PaquetePearlHarbor(paqueteBase: PaqueteTuristico)&lt;br&gt;+ getPrecio(): double&lt;br style=&quot;border-color: var(--border-color);&quot;&gt;+ getDuracion(): int&lt;br style=&quot;border-color: var(--border-color);&quot;&gt;+ getDescripcion(): String" style="text;strokeColor=none;fillColor=none;align=left;verticalAlign=top;spacingLeft=4;spacingRight=4;overflow=hidden;rotatable=0;points=[[0,0.5],[1,0.5]];portConstraint=eastwest;whiteSpace=wrap;html=1;" vertex="1" parent="wZF9iDMgWRP9hFnF8hXq-18">
          <mxGeometry y="40" width="270" height="90" as="geometry" />
        </mxCell>
        <mxCell id="wZF9iDMgWRP9hFnF8hXq-22" value="PaqueteAmazingHawaii" style="swimlane;fontStyle=1;align=center;verticalAlign=top;childLayout=stackLayout;horizontal=1;startSize=26;horizontalStack=0;resizeParent=1;resizeParentMax=0;resizeLast=0;collapsible=1;marginBottom=0;whiteSpace=wrap;html=1;" vertex="1" parent="1">
          <mxGeometry x="-2" y="680" width="350" height="120" as="geometry" />
        </mxCell>
        <mxCell id="wZF9iDMgWRP9hFnF8hXq-24" value="" style="line;strokeWidth=1;fillColor=none;align=left;verticalAlign=middle;spacingTop=-1;spacingLeft=3;spacingRight=3;rotatable=0;labelPosition=right;points=[];portConstraint=eastwest;strokeColor=inherit;" vertex="1" parent="wZF9iDMgWRP9hFnF8hXq-22">
          <mxGeometry y="26" width="350" height="14" as="geometry" />
        </mxCell>
        <mxCell id="wZF9iDMgWRP9hFnF8hXq-25" value="+PaqueteAmazingHawaii(paqueteBase:PaqueteTuristico)&lt;br&gt;+ getPrecio(): double&lt;br style=&quot;border-color: var(--border-color);&quot;&gt;+ getDuracion(): int&lt;br style=&quot;border-color: var(--border-color);&quot;&gt;+ getDescripcion(): String" style="text;strokeColor=none;fillColor=none;align=left;verticalAlign=top;spacingLeft=4;spacingRight=4;overflow=hidden;rotatable=0;points=[[0,0.5],[1,0.5]];portConstraint=eastwest;whiteSpace=wrap;html=1;" vertex="1" parent="wZF9iDMgWRP9hFnF8hXq-22">
          <mxGeometry y="40" width="350" height="80" as="geometry" />
        </mxCell>
        <mxCell id="wZF9iDMgWRP9hFnF8hXq-26" value="Extends" style="endArrow=block;endSize=16;endFill=0;html=1;rounded=0;entryX=0.523;entryY=1.017;entryDx=0;entryDy=0;entryPerimeter=0;exitX=0.5;exitY=0;exitDx=0;exitDy=0;" edge="1" parent="1" source="wZF9iDMgWRP9hFnF8hXq-14" target="FpeAan1M-ZCTcoJyhv8M-8">
          <mxGeometry width="160" relative="1" as="geometry">
            <mxPoint x="310" y="610" as="sourcePoint" />
            <mxPoint x="470" y="610" as="targetPoint" />
          </mxGeometry>
        </mxCell>
        <mxCell id="wZF9iDMgWRP9hFnF8hXq-27" value="Extends" style="endArrow=block;endSize=16;endFill=0;html=1;rounded=0;entryX=0.377;entryY=1.007;entryDx=0;entryDy=0;entryPerimeter=0;" edge="1" parent="1" source="wZF9iDMgWRP9hFnF8hXq-22" target="FpeAan1M-ZCTcoJyhv8M-8">
          <mxGeometry width="160" relative="1" as="geometry">
            <mxPoint x="348" y="700" as="sourcePoint" />
            <mxPoint x="425" y="521" as="targetPoint" />
          </mxGeometry>
        </mxCell>
        <mxCell id="wZF9iDMgWRP9hFnF8hXq-28" value="Extends" style="endArrow=block;endSize=16;endFill=0;html=1;rounded=0;entryX=0.605;entryY=1.007;entryDx=0;entryDy=0;entryPerimeter=0;" edge="1" parent="1" source="wZF9iDMgWRP9hFnF8hXq-18" target="FpeAan1M-ZCTcoJyhv8M-8">
          <mxGeometry width="160" relative="1" as="geometry">
            <mxPoint x="590" y="709" as="sourcePoint" />
            <mxPoint x="667" y="530" as="targetPoint" />
          </mxGeometry>
        </mxCell>
        <mxCell id="wZF9iDMgWRP9hFnF8hXq-29" value="Control" style="swimlane;fontStyle=1;align=center;verticalAlign=top;childLayout=stackLayout;horizontal=1;startSize=26;horizontalStack=0;resizeParent=1;resizeParentMax=0;resizeLast=0;collapsible=1;marginBottom=0;whiteSpace=wrap;html=1;" vertex="1" parent="1">
          <mxGeometry x="-320" y="480" width="290" height="124" as="geometry" />
        </mxCell>
        <mxCell id="wZF9iDMgWRP9hFnF8hXq-30" value="-paquetesDecoradosIndividual: List&lt;br&gt;-paquetesDecoradosFamilia: List&lt;br&gt;-miPaqueteBase: PaqueteBase&lt;br&gt;" style="text;strokeColor=none;fillColor=none;align=left;verticalAlign=top;spacingLeft=4;spacingRight=4;overflow=hidden;rotatable=0;points=[[0,0.5],[1,0.5]];portConstraint=eastwest;whiteSpace=wrap;html=1;" vertex="1" parent="wZF9iDMgWRP9hFnF8hXq-29">
          <mxGeometry y="26" width="290" height="64" as="geometry" />
        </mxCell>
        <mxCell id="wZF9iDMgWRP9hFnF8hXq-31" value="" style="line;strokeWidth=1;fillColor=none;align=left;verticalAlign=middle;spacingTop=-1;spacingLeft=3;spacingRight=3;rotatable=0;labelPosition=right;points=[];portConstraint=eastwest;strokeColor=inherit;" vertex="1" parent="wZF9iDMgWRP9hFnF8hXq-29">
          <mxGeometry y="90" width="290" height="8" as="geometry" />
        </mxCell>
        <mxCell id="wZF9iDMgWRP9hFnF8hXq-32" value="+ method(type): type" style="text;strokeColor=none;fillColor=none;align=left;verticalAlign=top;spacingLeft=4;spacingRight=4;overflow=hidden;rotatable=0;points=[[0,0.5],[1,0.5]];portConstraint=eastwest;whiteSpace=wrap;html=1;" vertex="1" parent="wZF9iDMgWRP9hFnF8hXq-29">
          <mxGeometry y="98" width="290" height="26" as="geometry" />
        </mxCell>
        <mxCell id="cuVdB57IfREcj4x9sKNd-1" value="TourPlanner" style="swimlane;fontStyle=1;align=center;verticalAlign=top;childLayout=stackLayout;horizontal=1;startSize=26;horizontalStack=0;resizeParent=1;resizeParentMax=0;resizeLast=0;collapsible=1;marginBottom=0;whiteSpace=wrap;html=1;" vertex="1" parent="1">
          <mxGeometry x="-287" y="180" width="210" height="140" as="geometry" />
        </mxCell>
        <mxCell id="cuVdB57IfREcj4x9sKNd-2" value="- controller: Control" style="text;strokeColor=none;fillColor=none;align=left;verticalAlign=top;spacingLeft=4;spacingRight=4;overflow=hidden;rotatable=0;points=[[0,0.5],[1,0.5]];portConstraint=eastwest;whiteSpace=wrap;html=1;" vertex="1" parent="cuVdB57IfREcj4x9sKNd-1">
          <mxGeometry y="26" width="210" height="26" as="geometry" />
        </mxCell>
        <mxCell id="cuVdB57IfREcj4x9sKNd-3" value="" style="line;strokeWidth=1;fillColor=none;align=left;verticalAlign=middle;spacingTop=-1;spacingLeft=3;spacingRight=3;rotatable=0;labelPosition=right;points=[];portConstraint=eastwest;strokeColor=inherit;" vertex="1" parent="cuVdB57IfREcj4x9sKNd-1">
          <mxGeometry y="52" width="210" height="8" as="geometry" />
        </mxCell>
        <mxCell id="cuVdB57IfREcj4x9sKNd-4" value="+ main(): void&lt;br&gt;+ menuPrincipal(): void&lt;br&gt;+ menuPaquetes(): void&lt;br&gt;+ manuPaquetes(cantidad: int): void" style="text;strokeColor=none;fillColor=none;align=left;verticalAlign=top;spacingLeft=4;spacingRight=4;overflow=hidden;rotatable=0;points=[[0,0.5],[1,0.5]];portConstraint=eastwest;whiteSpace=wrap;html=1;" vertex="1" parent="cuVdB57IfREcj4x9sKNd-1">
          <mxGeometry y="60" width="210" height="80" as="geometry" />
        </mxCell>
        <mxCell id="wZF9iDMgWRP9hFnF8hXq-35" value="" style="endArrow=diamondThin;endFill=0;endSize=24;html=1;rounded=0;entryX=1.002;entryY=0.987;entryDx=0;entryDy=0;entryPerimeter=0;" edge="1" parent="1" target="wZF9iDMgWRP9hFnF8hXq-30">
          <mxGeometry width="160" relative="1" as="geometry">
            <mxPoint x="390" y="480" as="sourcePoint" />
            <mxPoint x="320" y="580" as="targetPoint" />
          </mxGeometry>
        </mxCell>
        <mxCell id="wZF9iDMgWRP9hFnF8hXq-36" value="" style="endArrow=none;html=1;edgeStyle=orthogonalEdgeStyle;rounded=0;exitX=1;exitY=0.5;exitDx=0;exitDy=0;entryX=0;entryY=0.412;entryDx=0;entryDy=0;entryPerimeter=0;" edge="1" parent="1" source="wZF9iDMgWRP9hFnF8hXq-30" target="8U7-mPMAWJ6uLOay3m5V-13">
          <mxGeometry relative="1" as="geometry">
            <mxPoint x="-10" y="520" as="sourcePoint" />
            <mxPoint x="150" y="520" as="targetPoint" />
          </mxGeometry>
        </mxCell>
        <mxCell id="wZF9iDMgWRP9hFnF8hXq-37" value="0" style="edgeLabel;resizable=0;html=1;align=left;verticalAlign=bottom;" connectable="0" vertex="1" parent="wZF9iDMgWRP9hFnF8hXq-36">
          <mxGeometry x="-1" relative="1" as="geometry" />
        </mxCell>
        <mxCell id="wZF9iDMgWRP9hFnF8hXq-38" value="1..1" style="edgeLabel;resizable=0;html=1;align=right;verticalAlign=bottom;" connectable="0" vertex="1" parent="wZF9iDMgWRP9hFnF8hXq-36">
          <mxGeometry x="1" relative="1" as="geometry" />
        </mxCell>
        <mxCell id="cuVdB57IfREcj4x9sKNd-5" value="" style="endArrow=open;endFill=1;endSize=12;html=1;rounded=0;exitX=0.571;exitY=1;exitDx=0;exitDy=0;entryX=0.524;entryY=0;entryDx=0;entryDy=0;entryPerimeter=0;exitPerimeter=0;" edge="1" parent="1" source="cuVdB57IfREcj4x9sKNd-4" target="wZF9iDMgWRP9hFnF8hXq-29">
          <mxGeometry width="160" relative="1" as="geometry">
            <mxPoint x="-30" y="240" as="sourcePoint" />
            <mxPoint x="130" y="240" as="targetPoint" />
            <Array as="points" />
          </mxGeometry>
        </mxCell>
        <mxCell id="yqs-ynSql05wMoVVVasd-2" value="0" style="edgeLabel;html=1;align=center;verticalAlign=middle;resizable=0;points=[];" connectable="0" vertex="1" parent="cuVdB57IfREcj4x9sKNd-5">
          <mxGeometry x="-0.8982" relative="1" as="geometry">
            <mxPoint x="17" as="offset" />
          </mxGeometry>
        </mxCell>
        <mxCell id="yqs-ynSql05wMoVVVasd-3" value="1..1" style="edgeLabel;html=1;align=center;verticalAlign=middle;resizable=0;points=[];" connectable="0" vertex="1" parent="cuVdB57IfREcj4x9sKNd-5">
          <mxGeometry x="0.7518" relative="1" as="geometry">
            <mxPoint x="18" y="-10" as="offset" />
          </mxGeometry>
        </mxCell>
        <mxCell id="wZF9iDMgWRP9hFnF8hXq-39" value="1..2" style="text;html=1;strokeColor=none;fillColor=none;align=center;verticalAlign=middle;whiteSpace=wrap;rounded=0;" vertex="1" parent="1">
          <mxGeometry x="340" y="460" width="60" height="30" as="geometry" />
        </mxCell>
        <mxCell id="wZF9iDMgWRP9hFnF8hXq-40" value="0" style="edgeLabel;resizable=0;html=1;align=left;verticalAlign=bottom;" connectable="0" vertex="1" parent="1">
          <mxGeometry x="-20.000000000000227" y="560.0000000000001" as="geometry">
            <mxPoint x="-4" y="39" as="offset" />
          </mxGeometry>
        </mxCell>
      </root>
    </mxGraphModel>
  </diagram>
</mxfile>
